<svg xmlns="http://www.w3.org/2000/svg" viewBox="0 0 240 560" role="img" aria-label="Barber pole icon">
  <defs>
    <clipPath id="clip">
      <rect x="62" y="106" width="116" height="330" rx="40"/>
    </clipPath>
    <linearGradient id="cap" x1="0" y1="0" x2="0" y2="1">
      <stop offset="0" stop-color="#ffffff"/>
      <stop offset="1" stop-color="#f1f3f9"/>
    </linearGradient>
    <pattern id="stripes" width="120" height="120" patternUnits="userSpaceOnUse" patternTransform="rotate(35)">
      <rect width="120" height="120" fill="#ffffff"/>
      <rect x="0" y="0" width="36" height="120" fill="#e11d48"/>
      <rect x="48" y="0" width="36" height="120" fill="#2563eb"/>
    </pattern>
  </defs>

  <path d="M120 26c54 0 98 44 98 98s-44 98-98 98-98-44-98-98 44-98 98-98Z"
        fill="url(#cap)" stroke="#2b2d42" stroke-width="10"/>
  <rect x="70" y="98" width="100" height="32" rx="14" fill="url(#cap)" stroke="#2b2d42" stroke-width="10"/>

  <rect x="62" y="106" width="116" height="330" rx="40" fill="#ffffff" stroke="#2b2d42" stroke-width="10"/>
  <g clip-path="url(#clip)">
    <rect x="0" y="0" width="240" height="560" fill="url(#stripes)"/>
  </g>

  <rect x="56" y="420" width="128" height="52" rx="22" fill="url(#cap)" stroke="#2b2d42" stroke-width="10"/>
  <path d="M120 472c54 0 98 30 98 66s-44 66-98 66-98-30-98-66 44-66 98-66Z"
        fill="url(#cap)" stroke="#2b2d42" stroke-width="10"/>
  <circle cx="120" cy="542" r="10" fill="#2b2d42"/>
</svg>
